<svg width="16" height="16" viewBox="0 0 16 16" fill="none" xmlns="http://www.w3.org/2000/svg">
<path d="M5.00078 7.6998C4.64621 7.6998 4.29512 7.62997 3.96754 7.49428C3.63996 7.35859 3.34231 7.15971 3.09159 6.90899C2.84087 6.65827 2.64199 6.36063 2.50631 6.03305C2.37062 5.70547 2.30078 5.35437 2.30078 4.9998C2.30078 4.64524 2.37062 4.29414 2.50631 3.96656C2.64199 3.63898 2.84087 3.34133 3.09159 3.09062C3.34231 2.8399 3.63996 2.64102 3.96754 2.50533C4.29512 2.36964 4.64621 2.2998 5.00078 2.2998C5.71687 2.2998 6.40362 2.58427 6.90997 3.09062C7.41632 3.59696 7.70078 4.28372 7.70078 4.9998C7.70078 5.71589 7.41632 6.40264 6.90997 6.90899C6.40362 7.41534 5.71687 7.6998 5.00078 7.6998ZM5.00078 13.6998C4.2847 13.6998 3.59794 13.4153 3.09159 12.909C2.58524 12.4026 2.30078 11.7159 2.30078 10.9998C2.30078 10.2837 2.58524 9.59697 3.09159 9.09062C3.59794 8.58427 4.2847 8.29981 5.00078 8.2998C5.71687 8.29981 6.40362 8.58427 6.90997 9.09062C7.41632 9.59697 7.70078 10.2837 7.70078 10.9998C7.70078 11.7159 7.41632 12.4026 6.90997 12.909C6.40362 13.4153 5.71687 13.6998 5.00078 13.6998ZM11.0008 7.6998C10.6462 7.6998 10.2951 7.62997 9.96754 7.49428C9.63996 7.35859 9.34231 7.15971 9.09159 6.90899C8.84088 6.65827 8.64199 6.36063 8.50631 6.03305C8.37062 5.70547 8.30078 5.35437 8.30078 4.9998C8.30078 4.64524 8.37062 4.29414 8.50631 3.96656C8.64199 3.63898 8.84088 3.34133 9.09159 3.09062C9.34231 2.8399 9.63996 2.64102 9.96754 2.50533C10.2951 2.36964 10.6462 2.2998 11.0008 2.2998C11.7169 2.2998 12.4036 2.58427 12.91 3.09062C13.4163 3.59696 13.7008 4.28372 13.7008 4.9998C13.7008 5.71589 13.4163 6.40264 12.91 6.90899C12.4036 7.41534 11.7169 7.6998 11.0008 7.6998ZM11.0008 13.6998C10.2847 13.6998 9.59794 13.4153 9.09159 12.909C8.58525 12.4026 8.30078 11.7159 8.30078 10.9998C8.30078 10.2837 8.58525 9.59697 9.09159 9.09062C9.59794 8.58427 10.2847 8.29981 11.0008 8.2998C11.7169 8.29981 12.4036 8.58427 12.91 9.09062C13.4163 9.59697 13.7008 10.2837 13.7008 10.9998C13.7008 11.7159 13.4163 12.4026 12.91 12.909C12.4036 13.4153 11.7169 13.6998 11.0008 13.6998Z" fill="#525866"/>
</svg>
