<svg width="24" height="24" viewBox="0 0 24 24" fill="none" xmlns="http://www.w3.org/2000/svg">
<path d="M3.9 10.1999H3V4.8026C3 4.304 3.4095 3.8999 3.8928 3.8999H20.1072C20.2253 3.89966 20.3424 3.92291 20.4515 3.96831C20.5605 4.01371 20.6595 4.08035 20.7426 4.16435C20.8257 4.24836 20.8912 4.34805 20.9354 4.45762C20.9796 4.56719 21.0016 4.68446 21 4.8026V10.1999H20.1V19.2008C20.1004 19.3185 20.0775 19.4352 20.0328 19.544C19.9881 19.6529 19.9223 19.752 19.8394 19.8354C19.7564 19.9189 19.6578 19.9853 19.5491 20.0306C19.4405 20.076 19.324 20.0996 19.2063 20.0999H4.7937C4.67598 20.0996 4.55949 20.076 4.45087 20.0306C4.34225 19.9853 4.24363 19.9189 4.16064 19.8354C4.07765 19.752 4.01192 19.6529 3.9672 19.544C3.92248 19.4352 3.89964 19.3185 3.9 19.2008V10.1999ZM18.3 10.1999H5.7V18.2999H18.3V10.1999ZM4.8 5.6999V8.3999H19.2V5.6999H4.8ZM9.3 11.9999H14.7V13.7999H9.3V11.9999Z" fill="#0A0D14"/>
</svg>
