<svg width="24" height="24" viewBox="0 0 24 24" fill="none" xmlns="http://www.w3.org/2000/svg">
<path d="M12 3.89844C16.8528 3.89844 20.8902 7.39044 21.7371 11.9984C20.8911 16.6064 16.8528 20.0984 12 20.0984C7.14718 20.0984 3.10978 16.6064 2.26288 11.9984C3.10888 7.39044 7.14718 3.89844 12 3.89844ZM12 18.2984C13.8355 18.298 15.6165 17.6746 17.0515 16.5301C18.4866 15.3856 19.4906 13.7879 19.8993 11.9984C19.4891 10.2104 18.4844 8.61444 17.0495 7.47146C15.6147 6.32848 13.8345 5.70611 12 5.70611C10.1655 5.70611 8.3853 6.32848 6.95042 7.47146C5.51553 8.61444 4.51087 10.2104 4.10068 11.9984C4.50937 13.7879 5.51339 15.3856 6.94841 16.5301C8.38343 17.6746 10.1645 18.298 12 18.2984ZM12 16.0484C10.9259 16.0484 9.89572 15.6217 9.1362 14.8622C8.37667 14.1027 7.94998 13.0726 7.94998 11.9984C7.94998 10.9243 8.37667 9.89418 9.1362 9.13466C9.89572 8.37513 10.9259 7.94844 12 7.94844C13.0741 7.94844 14.1042 8.37513 14.8638 9.13466C15.6233 9.89418 16.05 10.9243 16.05 11.9984C16.05 13.0726 15.6233 14.1027 14.8638 14.8622C14.1042 15.6217 13.0741 16.0484 12 16.0484ZM12 14.2484C12.5967 14.2484 13.169 14.0114 13.591 13.5894C14.0129 13.1675 14.25 12.5952 14.25 11.9984C14.25 11.4017 14.0129 10.8294 13.591 10.4074C13.169 9.98549 12.5967 9.74844 12 9.74844C11.4032 9.74844 10.8309 9.98549 10.409 10.4074C9.98703 10.8294 9.74998 11.4017 9.74998 11.9984C9.74998 12.5952 9.98703 13.1675 10.409 13.5894C10.8309 14.0114 11.4032 14.2484 12 14.2484Z" fill="#0A0D14"/>
</svg>
