<svg width="24" height="24" viewBox="0 0 24 24" fill="none" xmlns="http://www.w3.org/2000/svg">
<path d="M19.2 6.5999H21.9V8.3999H21V18.2999H21.9V20.0999H2.09998V18.2999H2.99998V8.3999H2.09998V6.5999H4.79998V4.7999C4.79998 4.56121 4.8948 4.33229 5.06358 4.16351C5.23236 3.99472 5.46128 3.8999 5.69998 3.8999H18.3C18.5387 3.8999 18.7676 3.99472 18.9364 4.16351C19.1052 4.33229 19.2 4.56121 19.2 4.7999V6.5999ZM19.2 8.3999H4.79998V18.2999H7.49998V11.9999H9.29998V18.2999H11.1V11.9999H12.9V18.2999H14.7V11.9999H16.5V18.2999H19.2V8.3999ZM6.59998 5.6999V6.5999H17.4V5.6999H6.59998Z" fill="#0A0D14"/>
</svg>
