<svg width="24" height="24" viewBox="0 0 24 24" fill="none" xmlns="http://www.w3.org/2000/svg">
<path d="M20.1 3.90039C20.3387 3.90039 20.5676 3.99521 20.7364 4.16399C20.9052 4.33278 21 4.5617 21 4.80039V19.2004C21 19.4391 20.9052 19.668 20.7364 19.8368C20.5676 20.0056 20.3387 20.1004 20.1 20.1004H3.9C3.66131 20.1004 3.43239 20.0056 3.2636 19.8368C3.09482 19.668 3 19.4391 3 19.2004V4.80039C3 4.5617 3.09482 4.33278 3.2636 4.16399C3.43239 3.99521 3.66131 3.90039 3.9 3.90039H20.1ZM11.1 12.9004H4.8V18.3004H11.1V12.9004ZM19.2 12.9004H12.9V18.3004H19.2V12.9004ZM11.1 5.70039H4.8V11.1004H11.1V5.70039ZM19.2 5.70039H12.9V11.1004H19.2V5.70039Z" fill="#0A0D14"/>
</svg>
