<svg width="24" height="24" viewBox="0 0 24 24" fill="none" xmlns="http://www.w3.org/2000/svg">
<path d="M12 21C7.0293 21 3 16.9707 3 12C3 7.0293 7.0293 3 12 3C16.9707 3 21 7.0293 21 12C21 16.9707 16.9707 21 12 21ZM12 19.2C13.9096 19.2 15.7409 18.4414 17.0912 17.0912C18.4414 15.7409 19.2 13.9096 19.2 12C19.2 10.0904 18.4414 8.25909 17.0912 6.90883C15.7409 5.55857 13.9096 4.8 12 4.8C10.0904 4.8 8.25909 5.55857 6.90883 6.90883C5.55857 8.25909 4.8 10.0904 4.8 12C4.8 13.9096 5.55857 15.7409 6.90883 17.0912C8.25909 18.4414 10.0904 19.2 12 19.2ZM9.3 12.9H8.4V11.1H9.3V10.2C9.29958 9.46854 9.55373 8.75973 10.0189 8.1952C10.484 7.63066 11.1311 7.24559 11.8491 7.10605C12.5671 6.96651 13.3113 7.0812 13.954 7.43045C14.5967 7.7797 15.0978 8.34172 15.3714 9.0201L13.584 9.4665C13.4262 9.221 13.1931 9.03329 12.9196 8.93151C12.6461 8.82974 12.3469 8.81941 12.067 8.90205C11.7871 8.9847 11.5416 9.15588 11.3672 9.3899C11.1929 9.62392 11.0991 9.90817 11.1 10.2V11.1H13.8V12.9H11.1V14.7H15.6V16.5H8.4V14.7H9.3V12.9Z" fill="#0A0D14"/>
</svg>
