<svg width="20" height="20" viewBox="0 0 20 20" fill="none" xmlns="http://www.w3.org/2000/svg">
<path d="M9.09783 2.0795C12.9719 2.0795 16.1162 5.22371 16.1162 9.09783C16.1162 12.9719 12.9719 16.1162 9.09783 16.1162C5.22371 16.1162 2.0795 12.9719 2.0795 9.09783C2.0795 5.22371 5.22371 2.0795 9.09783 2.0795ZM9.09783 14.5565C12.1134 14.5565 14.5565 12.1134 14.5565 9.09783C14.5565 6.08151 12.1134 3.63913 9.09783 3.63913C6.08151 3.63913 3.63913 6.08151 3.63913 9.09783C3.63913 12.1134 6.08151 14.5565 9.09783 14.5565ZM15.7146 14.6119L17.9206 16.8172L16.8172 17.9206L14.6119 15.7146L15.7146 14.6119Z" fill="#525866"/>
</svg>
