<svg width="24" height="24" viewBox="0 0 24 24" fill="none" xmlns="http://www.w3.org/2000/svg">
<path d="M19.2 21H4.80002C4.56133 21 4.33241 20.9052 4.16363 20.7364C3.99485 20.5676 3.90002 20.3387 3.90002 20.1V3.9C3.90002 3.66131 3.99485 3.43239 4.16363 3.2636C4.33241 3.09482 4.56133 3 4.80002 3H19.2C19.4387 3 19.6676 3.09482 19.8364 3.2636C20.0052 3.43239 20.1 3.66131 20.1 3.9V20.1C20.1 20.3387 20.0052 20.5676 19.8364 20.7364C19.6676 20.9052 19.4387 21 19.2 21ZM18.3 19.2V4.8H5.70002V19.2H18.3ZM9.30002 6.6V8.4C9.30002 9.11608 9.58449 9.80284 10.0908 10.3092C10.5972 10.8155 11.2839 11.1 12 11.1C12.7161 11.1 13.4029 10.8155 13.9092 10.3092C14.4156 9.80284 14.7 9.11608 14.7 8.4V6.6H16.5V8.4C16.5 9.59347 16.0259 10.7381 15.182 11.582C14.3381 12.4259 13.1935 12.9 12 12.9C10.8066 12.9 9.66196 12.4259 8.81804 11.582C7.97413 10.7381 7.50002 9.59347 7.50002 8.4V6.6H9.30002Z" fill="#0A0D14"/>
</svg>
