<svg width="20" height="20" viewBox="0 0 20 20" fill="none" xmlns="http://www.w3.org/2000/svg">
<path d="M10.0012 1.375L13.1707 6.01225L18.5609 7.594L15.1297 12.0415L15.2909 17.656L10.0012 15.7675L4.71141 17.656L4.87266 12.0415L1.44141 7.594L6.83166 6.01225L10.0012 1.375ZM8.50116 10H7.00116C7.00114 10.7827 7.307 11.5343 7.85346 12.0947C8.39992 12.655 9.14371 12.9795 9.92613 12.9991C10.7086 13.0187 11.4676 12.7317 12.0414 12.1994C12.6152 11.6671 12.9583 10.9317 12.9974 10.15L13.0012 10H11.5012C11.5029 10.3892 11.3533 10.7639 11.0839 11.0449C10.8145 11.3258 10.4464 11.4911 10.0575 11.5057C9.66848 11.5203 9.28907 11.3831 8.99937 11.1231C8.70966 10.8632 8.53236 10.5008 8.50491 10.1125L8.50116 10Z" fill="#525866"/>
</svg>
