<svg width="24" height="24" viewBox="0 0 24 24" fill="none" xmlns="http://www.w3.org/2000/svg">
<path d="M12 17.4016C10.5678 17.4016 9.19433 16.8326 8.18163 15.8199C7.16893 14.8072 6.60001 13.4337 6.60001 12.0016C6.60001 10.5694 7.16893 9.19588 8.18163 8.18319C9.19433 7.17049 10.5678 6.60156 12 6.60156C13.4322 6.60156 14.8057 7.17049 15.8184 8.18319C16.8311 9.19588 17.4 10.5694 17.4 12.0016C17.4 13.4337 16.8311 14.8072 15.8184 15.8199C14.8057 16.8326 13.4322 17.4016 12 17.4016ZM12 15.6016C12.9548 15.6016 13.8705 15.2223 14.5456 14.5471C15.2207 13.872 15.6 12.9563 15.6 12.0016C15.6 11.0468 15.2207 10.1311 14.5456 9.45598C13.8705 8.78085 12.9548 8.40156 12 8.40156C11.0452 8.40156 10.1296 8.78085 9.45442 9.45598C8.77929 10.1311 8.40001 11.0468 8.40001 12.0016C8.40001 12.9563 8.77929 13.872 9.45442 14.5471C10.1296 15.2223 11.0452 15.6016 12 15.6016ZM11.1 2.10156H12.9V4.80156H11.1V2.10156ZM11.1 19.2016H12.9V21.9016H11.1V19.2016ZM4.36351 5.63766L5.63611 4.36506L7.54501 6.27396L6.27241 7.54656L4.36351 5.63856V5.63766ZM16.455 17.7292L17.7276 16.4566L19.6365 18.3655L18.3639 19.6381L16.455 17.7292ZM18.3639 4.36416L19.6365 5.63766L17.7276 7.54656L16.455 6.27396L18.3639 4.36506V4.36416ZM6.27241 16.4566L7.54501 17.7292L5.63611 19.6381L4.36351 18.3655L6.27241 16.4566ZM21.9 11.1016V12.9016H19.2V11.1016H21.9ZM4.80001 11.1016V12.9016H2.10001V11.1016H4.80001Z" fill="#0A0D14"/>
</svg>
