<svg width="24" height="24" viewBox="0 0 24 24" fill="none" xmlns="http://www.w3.org/2000/svg">
<path d="M9.26848 17.3992C9.16148 18.1501 8.78717 18.8371 8.21429 19.3342C7.6414 19.8312 6.90842 20.1049 6.14998 20.1049C5.39153 20.1049 4.65855 19.8312 4.08566 19.3342C3.51278 18.8371 3.13847 18.1501 3.03148 17.3992H2.09998V6.59922C2.09998 6.36052 2.1948 6.13161 2.36358 5.96282C2.53236 5.79404 2.76128 5.69922 2.99998 5.69922H15.6C15.8387 5.69922 16.0676 5.79404 16.2364 5.96282C16.4052 6.13161 16.5 6.36052 16.5 6.59922V8.39922H19.2L21.9 12.0496V17.3992H20.0685C19.9615 18.1501 19.5872 18.8371 19.0143 19.3342C18.4414 19.8312 17.7084 20.1049 16.95 20.1049C16.1915 20.1049 15.4585 19.8312 14.8857 19.3342C14.3128 18.8371 13.9385 18.1501 13.8315 17.3992H9.26848ZM14.7 7.49922H3.89998V14.7442C4.25508 14.3817 4.69252 14.1103 5.17505 13.9532C5.65759 13.7961 6.17094 13.7579 6.67141 13.8419C7.17189 13.9258 7.64467 14.1295 8.04952 14.4354C8.45438 14.7414 8.77931 15.1407 8.99668 15.5992H14.1033C14.2545 15.2815 14.457 14.9926 14.7 14.7442V7.49922ZM16.5 12.8992H20.1V12.6427L18.2928 10.1992H16.5V12.8992ZM16.95 18.2992C17.3081 18.2992 17.6516 18.1569 17.9049 17.9037C18.1581 17.6504 18.3004 17.3069 18.3004 16.9488C18.3004 16.5906 18.1581 16.2471 17.9049 15.9939C17.6516 15.7406 17.3081 15.5983 16.95 15.5983C16.5918 15.5983 16.2483 15.7406 15.9951 15.9939C15.7418 16.2471 15.5995 16.5906 15.5995 16.9488C15.5995 17.3069 15.7418 17.6504 15.9951 17.9037C16.2483 18.1569 16.5918 18.2992 16.95 18.2992ZM7.49998 16.9492C7.49998 16.7719 7.46506 16.5964 7.39721 16.4326C7.32937 16.2688 7.22993 16.12 7.10457 15.9946C6.97921 15.8693 6.83039 15.7698 6.6666 15.702C6.50281 15.6341 6.32726 15.5992 6.14998 15.5992C5.97269 15.5992 5.79714 15.6341 5.63335 15.702C5.46956 15.7698 5.32074 15.8693 5.19538 15.9946C5.07002 16.12 4.97058 16.2688 4.90274 16.4326C4.83489 16.5964 4.79998 16.7719 4.79998 16.9492C4.79998 17.3073 4.94221 17.6506 5.19538 17.9038C5.44856 18.157 5.79193 18.2992 6.14998 18.2992C6.50802 18.2992 6.8514 18.157 7.10457 17.9038C7.35774 17.6506 7.49998 17.3073 7.49998 16.9492Z" fill="#0A0D14"/>
</svg>
