<svg width="24" height="24" viewBox="0 0 24 24" fill="none" xmlns="http://www.w3.org/2000/svg">
<path d="M12 13.8016V15.6016C10.5679 15.6016 9.19437 16.1705 8.18167 17.1832C7.16898 18.1959 6.60005 19.5694 6.60005 21.0016H4.80005C4.80005 19.092 5.55862 17.2607 6.90888 15.9104C8.25914 14.5601 10.0905 13.8016 12 13.8016ZM12 12.9016C9.01655 12.9016 6.60005 10.4851 6.60005 7.50156C6.60005 4.51806 9.01655 2.10156 12 2.10156C14.9835 2.10156 17.4 4.51806 17.4 7.50156C17.4 10.4851 14.9835 12.9016 12 12.9016ZM12 11.1016C13.989 11.1016 15.6 9.49056 15.6 7.50156C15.6 5.51256 13.989 3.90156 12 3.90156C10.011 3.90156 8.40005 5.51256 8.40005 7.50156C8.40005 9.49056 10.011 11.1016 12 11.1016ZM17.4 20.5516L14.7549 21.9421L15.2598 18.9973L13.1205 16.9111L16.0779 16.4809L17.4 13.8016L18.723 16.4809L21.6795 16.9111L19.5402 18.9973L20.0442 21.9421L17.4 20.5516Z" fill="#0A0D14"/>
</svg>
