<svg width="178" height="24" viewBox="0 0 178 24" fill="none" xmlns="http://www.w3.org/2000/svg">
<path d="M1.18066 11.9102C1.18066 9.47266 3.31348 7.9873 6.70312 7.9873C8.6582 7.9873 10.1689 8.40625 10.9434 8.86328L11.0195 12.1133H10.1182C9.69922 10.2979 8.45508 9.26953 6.7666 9.26953C5.26855 9.26953 4.3418 9.92969 4.3418 10.9707C4.3418 11.999 5.16699 12.5068 6.66504 12.9258L7.76953 13.2305C10.2578 13.9287 11.6035 15.1221 11.6035 17.2549C11.6035 19.7178 9.2041 21.2412 6.00488 21.2412C4.01172 21.2412 2.22168 20.7715 1.20605 20.1367L1.0918 16.7471H1.99316C2.4502 18.7529 3.96094 19.959 5.91602 19.959C7.49023 19.959 8.42969 19.21 8.42969 18.1436C8.42969 17.1279 7.78223 16.5693 6.18262 16.1123L5.07812 15.8076C2.7041 15.1348 1.18066 13.9922 1.18066 11.9102ZM14.3281 17.2803V9.67578H12.7158V8.90137L17.1973 5.51172H17.8447V8.38086L21.4121 8.25391V9.67578L17.8447 9.57422V16.8994C17.8447 18.8926 18.6826 19.5781 19.9014 19.5781C20.5488 19.5781 21.1836 19.3623 21.6025 19.0703V20.0225C20.9805 20.6699 19.5078 21.2793 18.0605 21.2793C16.0674 21.2793 14.3281 20.2383 14.3281 17.2803ZM26.9932 8.08887V16.5693C26.9932 18.4482 27.9199 19.4258 29.5576 19.4258C30.7002 19.4258 31.5635 18.8926 31.9824 18.1816V10.958C31.9824 10.2217 31.8682 10.0439 31.1572 9.82812L30.3066 9.59961V8.72363L35.5244 8.08887V18.3213C35.5244 19.0703 35.626 19.248 36.3496 19.4512L37.1875 19.6797V20.5557L32.0205 21.1523V18.9814C31.335 20.2891 29.8242 21.2793 27.7295 21.2793C25.1777 21.2793 23.4512 19.8193 23.4512 17.1152V10.958C23.4512 10.2217 23.3369 10.0439 22.626 9.82812L21.7754 9.59961V8.72363L26.9932 8.08887ZM38.3887 14.7793C38.3887 10.6025 41.042 7.9873 44.3555 7.9873C45.8154 7.9873 47.0977 8.57129 47.7578 9.39648V4.90234C47.7578 4.16602 47.6436 3.97559 46.9326 3.77246L46.082 3.54395V2.66797L51.2998 2.0459V18.3213C51.2998 19.0576 51.4014 19.248 52.1377 19.4512L52.9756 19.6797V20.5557L47.8086 21.1523V18.9307C47.1484 20.3271 45.5107 21.2793 43.5938 21.2793C40.7373 21.2793 38.3887 18.8672 38.3887 14.7793ZM42.0322 14.4619C42.0322 17.5977 43.3652 19.4258 45.3076 19.4258C46.4375 19.4258 47.3135 18.9307 47.7578 18.1055V10.6152C47.415 9.95508 46.5137 9.43457 45.3965 9.43457C43.416 9.43457 42.0322 11.2881 42.0322 14.4619ZM54.1895 14.7031C54.1895 10.7295 56.8047 8 60.626 8C64.1553 8 66.2119 10.1455 66.2119 13.4717C66.2119 13.8271 66.1865 14.1953 66.1611 14.4111H57.7822C58.0615 17.5342 59.9531 19.4258 62.7588 19.4258C64.0029 19.4258 65.1963 18.9941 65.9199 18.3213V19.2734C64.9551 20.4795 63.1016 21.2793 60.8291 21.2793C57.084 21.2793 54.1895 18.791 54.1895 14.7031ZM60.6133 9.26953C58.9375 9.26953 57.833 10.6533 57.7568 13.3193L63 13.2939C63.0127 13.1924 63.0127 13.0654 63.0127 12.9258C63.0127 10.6533 62.1875 9.26953 60.6133 9.26953ZM72.6562 8.08887V10.2725C73.3545 8.96484 74.9033 7.9873 77.0361 7.9873C79.6514 7.9873 81.4287 9.42188 81.4287 12.0879V18.791C81.4287 19.6416 81.6318 19.8574 83.1045 20.0479V21H76.4141V20.0479C77.709 19.8701 77.8867 19.6797 77.8867 18.8672V12.6338C77.8867 10.793 76.9092 9.82812 75.2715 9.82812C74.0527 9.82812 73.1387 10.3613 72.707 11.085V18.8672C72.707 19.6797 72.8848 19.8701 74.1924 20.0479V21H67.502V20.0479C68.9492 19.8574 69.1777 19.6416 69.1777 18.791V10.958C69.1777 10.2217 69.0635 10.0439 68.3525 9.82812L67.502 9.59961V8.72363L72.6562 8.08887ZM85.334 17.2803V9.67578H83.7217V8.90137L88.2031 5.51172H88.8506V8.38086L92.418 8.25391V9.67578L88.8506 9.57422V16.8994C88.8506 18.8926 89.6885 19.5781 90.9072 19.5781C91.5547 19.5781 92.1895 19.3623 92.6084 19.0703V20.0225C91.9863 20.6699 90.5137 21.2793 89.0664 21.2793C87.0732 21.2793 85.334 20.2383 85.334 17.2803ZM104.062 2.0332V18.791C104.062 19.6416 104.291 19.8574 105.738 20.0479V21H98.8574V20.0479C100.305 19.8574 100.533 19.6416 100.533 18.791V4.90234C100.533 4.16602 100.419 3.97559 99.708 3.77246L98.8574 3.54395V2.66797L104.062 2.0332ZM110.634 21.2793C108.412 21.2793 106.863 19.959 106.863 18.0928C106.863 16.0996 108.298 14.8301 112.03 14.0303L114.798 13.4463V12.3926C114.798 10.1455 113.63 9.32031 111.776 9.32031C111.091 9.32031 110.469 9.44727 109.936 9.66309C110.431 9.92969 110.773 10.4629 110.773 11.085C110.773 12.0117 110.037 12.71 109.034 12.71C108.069 12.71 107.32 12.0498 107.32 11.1104C107.32 9.33301 109.644 7.9873 112.906 7.9873C116.22 7.9873 118.264 9.29492 118.264 12.2529V18.2451C118.264 19.3242 118.835 19.7559 119.559 19.7559C119.8 19.7559 120.016 19.7178 120.168 19.6543V20.5557C119.686 20.8984 118.822 21.2031 117.794 21.2031C116.359 21.2031 115.191 20.5049 114.899 19.2607C114.227 20.4033 112.627 21.2793 110.634 21.2793ZM110.367 17.5088C110.367 18.8291 111.269 19.5781 112.475 19.5781C113.503 19.5781 114.341 19.1465 114.798 18.4355V14.5508L113.465 14.8301C111.18 15.3506 110.367 16.1631 110.367 17.5088ZM121.09 14.7793C121.09 10.6025 123.743 7.9873 127.057 7.9873C128.517 7.9873 129.799 8.57129 130.459 9.39648V4.90234C130.459 4.16602 130.345 3.97559 129.634 3.77246L128.783 3.54395V2.66797L134.001 2.0459V18.3213C134.001 19.0576 134.103 19.248 134.839 19.4512L135.677 19.6797V20.5557L130.51 21.1523V18.9307C129.85 20.3271 128.212 21.2793 126.295 21.2793C123.438 21.2793 121.09 18.8672 121.09 14.7793ZM124.733 14.4619C124.733 17.5977 126.066 19.4258 128.009 19.4258C129.139 19.4258 130.015 18.9307 130.459 18.1055V10.6152C130.116 9.95508 129.215 9.43457 128.098 9.43457C126.117 9.43457 124.733 11.2881 124.733 14.4619ZM136.891 14.7793C136.891 10.6025 139.544 7.9873 142.857 7.9873C144.317 7.9873 145.6 8.57129 146.26 9.39648V4.90234C146.26 4.16602 146.146 3.97559 145.435 3.77246L144.584 3.54395V2.66797L149.802 2.0459V18.3213C149.802 19.0576 149.903 19.248 150.64 19.4512L151.478 19.6797V20.5557L146.311 21.1523V18.9307C145.65 20.3271 144.013 21.2793 142.096 21.2793C139.239 21.2793 136.891 18.8672 136.891 14.7793ZM140.534 14.4619C140.534 17.5977 141.867 19.4258 143.81 19.4258C144.939 19.4258 145.815 18.9307 146.26 18.1055V10.6152C145.917 9.95508 145.016 9.43457 143.898 9.43457C141.918 9.43457 140.534 11.2881 140.534 14.4619ZM152.691 14.7031C152.691 10.7295 155.307 8 159.128 8C162.657 8 164.714 10.1455 164.714 13.4717C164.714 13.8271 164.688 14.1953 164.663 14.4111H156.284C156.563 17.5342 158.455 19.4258 161.261 19.4258C162.505 19.4258 163.698 18.9941 164.422 18.3213V19.2734C163.457 20.4795 161.604 21.2793 159.331 21.2793C155.586 21.2793 152.691 18.791 152.691 14.7031ZM159.115 9.26953C157.439 9.26953 156.335 10.6533 156.259 13.3193L161.502 13.2939C161.515 13.1924 161.515 13.0654 161.515 12.9258C161.515 10.6533 160.689 9.26953 159.115 9.26953ZM171.171 8.08887L171.158 11.2627C172.529 9.05371 173.672 8.03809 174.929 8.03809C176.059 8.03809 176.528 8.87598 176.528 9.85352C176.528 10.3486 176.414 10.8311 176.249 11.0977C175.919 10.9834 175.284 10.8945 174.637 10.8945C173.278 10.8945 171.818 11.3262 171.209 11.9482V18.6514C171.209 19.6416 171.438 19.8447 173.075 20.0479V21H166.004V20.0479C167.464 19.8701 167.68 19.6416 167.68 18.8037V10.958C167.68 10.2217 167.565 10.0312 166.854 9.82812L166.004 9.59961V8.72363L171.171 8.08887Z" fill="#0A0D14"/>
</svg>
