<svg width="24" height="24" viewBox="0 0 24 24" fill="none" xmlns="http://www.w3.org/2000/svg">
<path d="M7.05 11.5492C6.51815 11.5492 5.9915 11.4445 5.50013 11.2409C5.00876 11.0374 4.56229 10.7391 4.18622 10.363C3.81014 9.98692 3.51182 9.54046 3.30829 9.04909C3.10476 8.55772 3 8.03107 3 7.49922C3 6.96737 3.10476 6.44072 3.30829 5.94935C3.51182 5.45798 3.81014 5.01151 4.18622 4.63544C4.56229 4.25936 5.00876 3.96104 5.50013 3.75751C5.9915 3.55398 6.51815 3.44922 7.05 3.44922C8.12413 3.44922 9.15426 3.87591 9.91378 4.63544C10.6733 5.39496 11.1 6.42509 11.1 7.49922C11.1 8.57335 10.6733 9.60348 9.91378 10.363C9.15426 11.1225 8.12413 11.5492 7.05 11.5492ZM7.5 20.5492C6.42587 20.5492 5.39574 20.1225 4.63622 19.363C3.8767 18.6035 3.45 17.5733 3.45 16.4992C3.45 15.4251 3.8767 14.395 4.63622 13.6354C5.39574 12.8759 6.42587 12.4492 7.5 12.4492C8.57413 12.4492 9.60426 12.8759 10.3638 13.6354C11.1233 14.395 11.55 15.4251 11.55 16.4992C11.55 17.5733 11.1233 18.6035 10.3638 19.363C9.60426 20.1225 8.57413 20.5492 7.5 20.5492ZM16.5 11.5492C15.9681 11.5492 15.4415 11.4445 14.9501 11.2409C14.4588 11.0374 14.0123 10.7391 13.6362 10.363C13.2601 9.98692 12.9618 9.54046 12.7583 9.04909C12.5548 8.55772 12.45 8.03107 12.45 7.49922C12.45 6.96737 12.5548 6.44072 12.7583 5.94935C12.9618 5.45798 13.2601 5.01151 13.6362 4.63544C14.0123 4.25936 14.4588 3.96104 14.9501 3.75751C15.4415 3.55398 15.9681 3.44922 16.5 3.44922C17.5741 3.44922 18.6043 3.87591 19.3638 4.63544C20.1233 5.39496 20.55 6.42509 20.55 7.49922C20.55 8.57335 20.1233 9.60348 19.3638 10.363C18.6043 11.1225 17.5741 11.5492 16.5 11.5492ZM16.5 20.5492C15.4259 20.5492 14.3957 20.1225 13.6362 19.363C12.8767 18.6035 12.45 17.5733 12.45 16.4992C12.45 15.4251 12.8767 14.395 13.6362 13.6354C14.3957 12.8759 15.4259 12.4492 16.5 12.4492C17.5741 12.4492 18.6043 12.8759 19.3638 13.6354C20.1233 14.395 20.55 15.4251 20.55 16.4992C20.55 17.5733 20.1233 18.6035 19.3638 19.363C18.6043 20.1225 17.5741 20.5492 16.5 20.5492ZM7.05 9.74922C7.64674 9.74922 8.21903 9.51217 8.64099 9.09021C9.06295 8.66825 9.3 8.09596 9.3 7.49922C9.3 6.90248 9.06295 6.33019 8.64099 5.90823C8.21903 5.48627 7.64674 5.24922 7.05 5.24922C6.45326 5.24922 5.88097 5.48627 5.45901 5.90823C5.03705 6.33019 4.8 6.90248 4.8 7.49922C4.8 8.09596 5.03705 8.66825 5.45901 9.09021C5.88097 9.51217 6.45326 9.74922 7.05 9.74922ZM7.5 18.7492C8.09674 18.7492 8.66903 18.5122 9.09099 18.0902C9.51295 17.6683 9.75 17.096 9.75 16.4992C9.75 15.9025 9.51295 15.3302 9.09099 14.9082C8.66903 14.4863 8.09674 14.2492 7.5 14.2492C6.90326 14.2492 6.33097 14.4863 5.90901 14.9082C5.48705 15.3302 5.25 15.9025 5.25 16.4992C5.25 17.096 5.48705 17.6683 5.90901 18.0902C6.33097 18.5122 6.90326 18.7492 7.5 18.7492ZM16.5 9.74922C17.0967 9.74922 17.669 9.51217 18.091 9.09021C18.5129 8.66825 18.75 8.09596 18.75 7.49922C18.75 6.90248 18.5129 6.33019 18.091 5.90823C17.669 5.48627 17.0967 5.24922 16.5 5.24922C15.9033 5.24922 15.331 5.48627 14.909 5.90823C14.4871 6.33019 14.25 6.90248 14.25 7.49922C14.25 8.09596 14.4871 8.66825 14.909 9.09021C15.331 9.51217 15.9033 9.74922 16.5 9.74922ZM16.5 18.7492C17.0967 18.7492 17.669 18.5122 18.091 18.0902C18.5129 17.6683 18.75 17.096 18.75 16.4992C18.75 15.9025 18.5129 15.3302 18.091 14.9082C17.669 14.4863 17.0967 14.2492 16.5 14.2492C15.9033 14.2492 15.331 14.4863 14.909 14.9082C14.4871 15.3302 14.25 15.9025 14.25 16.4992C14.25 17.096 14.4871 17.6683 14.909 18.0902C15.331 18.5122 15.9033 18.7492 16.5 18.7492Z" fill="currentColor"/>
</svg>
