<svg width="24" height="24" viewBox="0 0 24 24" fill="none" xmlns="http://www.w3.org/2000/svg">
<path d="M13.8 10.2004V13.8004H10.2V10.2004H13.8ZM15.6 10.2004H20.1V13.8004H15.6V10.2004ZM13.8 20.1004H10.2V15.6004H13.8V20.1004ZM15.6 20.1004V15.6004H20.1V19.2004C20.1 19.4391 20.0052 19.668 19.8364 19.8368C19.6676 20.0056 19.4387 20.1004 19.2 20.1004H15.6ZM13.8 3.90039V8.40039H10.2V3.90039H13.8ZM15.6 3.90039H19.2C19.4387 3.90039 19.6676 3.99521 19.8364 4.16399C20.0052 4.33278 20.1 4.5617 20.1 4.80039V8.40039H15.6V3.90039ZM8.39999 10.2004V13.8004H3.89999V10.2004H8.39999ZM8.39999 20.1004H4.79999C4.5613 20.1004 4.33238 20.0056 4.1636 19.8368C3.99482 19.668 3.89999 19.4391 3.89999 19.2004V15.6004H8.39999V20.1004ZM8.39999 3.90039V8.40039H3.89999V4.80039C3.89999 4.5617 3.99482 4.33278 4.1636 4.16399C4.33238 3.99521 4.5613 3.90039 4.79999 3.90039H8.39999Z" fill="currentColor"/>
</svg>
