<svg width="24" height="24" viewBox="0 0 24 24" fill="none" xmlns="http://www.w3.org/2000/svg">
<path d="M12 1.64844L15.8034 7.21314L22.2717 9.11124L18.1542 14.4482L18.3477 21.1856L12 18.9194L5.65227 21.1856L5.84577 14.4482L1.72827 9.11124L8.19657 7.21314L12 1.64844ZM10.2 11.9984H8.39997C8.39996 12.9376 8.76698 13.8397 9.42273 14.512C10.0785 15.1844 10.971 15.5739 11.9099 15.5974C12.8488 15.6209 13.7598 15.2765 14.4483 14.6377C15.1369 13.999 15.5485 13.1165 15.5955 12.1784L15.6 11.9984H13.8C13.8021 12.4655 13.6225 12.9151 13.2992 13.2523C12.976 13.5894 12.5343 13.7877 12.0675 13.8052C11.6008 13.8228 11.1455 13.6581 10.7978 13.3462C10.4502 13.0342 10.2374 12.5994 10.2045 12.1334L10.2 11.9984Z" fill="currentColor"/>
</svg>
