<svg width="24" height="24" viewBox="0 0 24 24" fill="none" xmlns="http://www.w3.org/2000/svg">
<path d="M10.5052 4.57795C9.45408 4.23767 8.31136 4.71099 7.80867 5.69492L7.20433 6.87779C7.13253 7.01834 7.01822 7.13265 6.87767 7.20446L5.69479 7.80879C4.71087 8.31148 4.23754 9.4542 4.57783 10.5054L4.98692 11.7691C5.03552 11.9193 5.03552 12.081 4.98692 12.2311L4.57783 13.4949C4.23754 14.5461 4.71087 15.6888 5.69479 16.1915L6.87767 16.7958C7.01822 16.8676 7.13253 16.9819 7.20433 17.1225L7.80867 18.3054C8.31136 19.2893 9.45408 19.7626 10.5052 19.4223L11.769 19.0132C11.9191 18.9646 12.0808 18.9646 12.231 19.0132L13.4947 19.4223C14.5459 19.7626 15.6886 19.2893 16.1914 18.3054L16.7956 17.1225C16.8675 16.9819 16.9818 16.8676 17.1223 16.7958L18.3052 16.1915C19.2892 15.6888 19.7625 14.5461 19.4222 13.4949L19.0131 12.2311C18.9645 12.081 18.9645 11.9193 19.0131 11.7691L19.4222 10.5054C19.7625 9.4542 19.2892 8.31148 18.3052 7.80879L17.1223 7.20446C16.9818 7.13265 16.8675 7.01834 16.7956 6.87779L16.1914 5.69492C15.6886 4.71099 14.5459 4.23767 13.4947 4.57795L12.231 4.98704C12.0808 5.03564 11.9191 5.03565 11.769 4.98704L10.5052 4.57795ZM9.14443 6.37736C9.312 6.04939 9.69291 5.89161 10.0433 6.00504L11.3071 6.41413C11.7575 6.55995 12.2425 6.55995 12.6929 6.41413L13.9567 6.00504C14.3071 5.89161 14.688 6.04939 14.8555 6.37736L15.4599 7.56024C15.6753 7.98188 16.0183 8.32481 16.4399 8.54022L17.6227 9.14456C17.9507 9.31212 18.1085 9.69303 17.9951 10.0434L17.586 11.3072C17.4402 11.7576 17.4402 12.2426 17.586 12.693L17.9951 13.9569C18.1085 14.3072 17.9507 14.6881 17.6227 14.8557L16.4399 15.46C16.0183 15.6754 15.6753 16.0184 15.4599 16.44L14.8555 17.6229C14.688 17.9508 14.3071 18.1086 13.9567 17.9952L12.6929 17.5861C12.2425 17.4403 11.7575 17.4403 11.3071 17.5861L10.0433 17.9952C9.69291 18.1086 9.312 17.9508 9.14443 17.6229L8.5401 16.44C8.32468 16.0184 7.98175 15.6754 7.56012 15.46L6.37724 14.8557C6.04927 14.6881 5.89149 14.3072 6.00492 13.9569L6.41401 12.693C6.55983 12.2426 6.55983 11.7576 6.41401 11.3072L6.00492 10.0434C5.89149 9.69303 6.04927 9.31212 6.37724 9.14456L7.56012 8.54022C7.98175 8.32481 8.32468 7.98188 8.5401 7.56024L9.14443 6.37736ZM8.0697 11.8182L11.2516 15.0001L16.555 9.69685L15.4943 8.63619L11.2516 12.8788L9.13036 10.7574L8.0697 11.8182Z" fill="currentColor"/>
</svg>
