<svg width="40" height="36" viewBox="0 0 40 36" fill="none" xmlns="http://www.w3.org/2000/svg">
<g filter="url(#filter0_d_0_72)">
<path d="M2 9C2 4.58172 5.58172 1 10 1H30C34.4183 1 38 4.58172 38 9V25C38 29.4183 34.4183 33 30 33H10C5.58172 33 2 29.4183 2 25V9Z" fill="white"/>
<path d="M10 1.5H30C34.1421 1.5 37.5 4.85786 37.5 9V25C37.5 29.1421 34.1421 32.5 30 32.5H10C5.85786 32.5 2.5 29.1421 2.5 25V9C2.5 4.85786 5.85786 1.5 10 1.5Z" stroke="#E2E4E9"/>
<path d="M20.0012 8.375L23.1707 13.0122L28.5609 14.594L25.1297 19.0415L25.2909 24.656L20.0012 22.7675L14.7114 24.656L14.8727 19.0415L11.4414 14.594L16.8317 13.0122L20.0012 8.375ZM18.5012 17H17.0012C17.0011 17.7827 17.307 18.5343 17.8535 19.0947C18.3999 19.655 19.1437 19.9795 19.9261 19.9991C20.7086 20.0187 21.4676 19.7317 22.0414 19.1994C22.6152 18.6671 22.9583 17.9317 22.9974 17.15L23.0012 17H21.5012C21.5029 17.3892 21.3533 17.7639 21.0839 18.0449C20.8145 18.3258 20.4464 18.4911 20.0575 18.5057C19.6685 18.5203 19.2891 18.3831 18.9994 18.1231C18.7097 17.8632 18.5324 17.5008 18.5049 17.1125L18.5012 17Z" fill="#525866"/>
</g>
<defs>
<filter id="filter0_d_0_72" x="0" y="0" width="40" height="36" filterUnits="userSpaceOnUse" color-interpolation-filters="sRGB">
<feFlood flood-opacity="0" result="BackgroundImageFix"/>
<feColorMatrix in="SourceAlpha" type="matrix" values="0 0 0 0 0 0 0 0 0 0 0 0 0 0 0 0 0 0 127 0" result="hardAlpha"/>
<feOffset dy="1"/>
<feGaussianBlur stdDeviation="1"/>
<feComposite in2="hardAlpha" operator="out"/>
<feColorMatrix type="matrix" values="0 0 0 0 0.321569 0 0 0 0 0.345098 0 0 0 0 0.4 0 0 0 0.06 0"/>
<feBlend mode="normal" in2="BackgroundImageFix" result="effect1_dropShadow_0_72"/>
<feBlend mode="normal" in="SourceGraphic" in2="effect1_dropShadow_0_72" result="shape"/>
</filter>
</defs>
</svg>
